<mxfile host="Electron" agent="Mozilla/5.0 (Windows NT 10.0; Win64; x64) AppleWebKit/537.36 (KHTML, like Gecko) draw.io/25.0.2 Chrome/128.0.6613.186 Electron/32.2.5 Safari/537.36" version="25.0.2">
  <diagram name="Page-1" id="FAzMW3WqmS5sdNdrU6Em">
    <mxGraphModel dx="1050" dy="621" grid="1" gridSize="10" guides="1" tooltips="1" connect="1" arrows="1" fold="1" page="1" pageScale="1" pageWidth="850" pageHeight="1100" math="0" shadow="0">
      <root>
        <mxCell id="0" />
        <mxCell id="1" parent="0" />
        <mxCell id="-GpDAr4fiVM3NmdpcUhU-4" value="" style="edgeStyle=orthogonalEdgeStyle;rounded=0;orthogonalLoop=1;jettySize=auto;html=1;" edge="1" parent="1" source="-GpDAr4fiVM3NmdpcUhU-1">
          <mxGeometry relative="1" as="geometry">
            <mxPoint x="520" y="190" as="targetPoint" />
          </mxGeometry>
        </mxCell>
        <mxCell id="-GpDAr4fiVM3NmdpcUhU-1" value="Ввод пользователем password" style="shape=process;whiteSpace=wrap;html=1;backgroundOutline=1;" vertex="1" parent="1">
          <mxGeometry x="360" y="150" width="120" height="60" as="geometry" />
        </mxCell>
        <mxCell id="-GpDAr4fiVM3NmdpcUhU-7" value="" style="edgeStyle=orthogonalEdgeStyle;rounded=0;orthogonalLoop=1;jettySize=auto;html=1;" edge="1" parent="1" source="-GpDAr4fiVM3NmdpcUhU-2" target="-GpDAr4fiVM3NmdpcUhU-6">
          <mxGeometry relative="1" as="geometry" />
        </mxCell>
        <mxCell id="-GpDAr4fiVM3NmdpcUhU-2" value="запрос к бд для нахождения salt для такого логина" style="rounded=0;whiteSpace=wrap;html=1;" vertex="1" parent="1">
          <mxGeometry x="510" y="260" width="120" height="60" as="geometry" />
        </mxCell>
        <mxCell id="-GpDAr4fiVM3NmdpcUhU-5" value="" style="edgeStyle=orthogonalEdgeStyle;rounded=0;orthogonalLoop=1;jettySize=auto;html=1;" edge="1" parent="1" target="-GpDAr4fiVM3NmdpcUhU-2">
          <mxGeometry relative="1" as="geometry">
            <mxPoint x="580" y="220" as="sourcePoint" />
          </mxGeometry>
        </mxCell>
        <mxCell id="-GpDAr4fiVM3NmdpcUhU-11" value="" style="edgeStyle=orthogonalEdgeStyle;rounded=0;orthogonalLoop=1;jettySize=auto;html=1;" edge="1" parent="1" source="-GpDAr4fiVM3NmdpcUhU-6" target="-GpDAr4fiVM3NmdpcUhU-8">
          <mxGeometry relative="1" as="geometry" />
        </mxCell>
        <mxCell id="-GpDAr4fiVM3NmdpcUhU-6" value="конкатенация password + salt&amp;nbsp;" style="rounded=0;whiteSpace=wrap;html=1;" vertex="1" parent="1">
          <mxGeometry x="350" y="270" width="120" height="60" as="geometry" />
        </mxCell>
        <mxCell id="-GpDAr4fiVM3NmdpcUhU-13" value="" style="edgeStyle=orthogonalEdgeStyle;rounded=0;orthogonalLoop=1;jettySize=auto;html=1;" edge="1" parent="1" source="-GpDAr4fiVM3NmdpcUhU-8" target="-GpDAr4fiVM3NmdpcUhU-12">
          <mxGeometry relative="1" as="geometry" />
        </mxCell>
        <mxCell id="-GpDAr4fiVM3NmdpcUhU-8" value="получение хеша этой строки с помощью SHA-1 и отправка на бд" style="rounded=0;whiteSpace=wrap;html=1;" vertex="1" parent="1">
          <mxGeometry x="360" y="380" width="120" height="60" as="geometry" />
        </mxCell>
        <mxCell id="-GpDAr4fiVM3NmdpcUhU-9" value="submit" style="rounded=0;whiteSpace=wrap;html=1;" vertex="1" parent="1">
          <mxGeometry x="520" y="160" width="120" height="60" as="geometry" />
        </mxCell>
        <mxCell id="-GpDAr4fiVM3NmdpcUhU-12" value="сранение хеша в бд с полученным хешом" style="rounded=0;whiteSpace=wrap;html=1;" vertex="1" parent="1">
          <mxGeometry x="520" y="390" width="120" height="60" as="geometry" />
        </mxCell>
      </root>
    </mxGraphModel>
  </diagram>
</mxfile>
